<mxfile host="app.diagrams.net" modified="2022-05-30T08:37:46.858Z" agent="5.0 (Macintosh; Intel Mac OS X 10_15_7) AppleWebKit/537.36 (KHTML, like Gecko) Chrome/101.0.0.0 Safari/537.36" etag="5hvYSXwGi3mJnAKE6784" version="18.1.3" type="github">
  <diagram id="ZGwalyleYwvO8AtcDpwx" name="Page-1">
    <mxGraphModel dx="1426" dy="688" grid="1" gridSize="10" guides="1" tooltips="1" connect="1" arrows="1" fold="1" page="1" pageScale="1" pageWidth="850" pageHeight="1100" math="0" shadow="0">
      <root>
        <mxCell id="0" />
        <mxCell id="1" parent="0" />
        <mxCell id="bLqd7wcAviLybuqdrjyT-2" value="TxProcessor Service" style="shape=umlLifeline;perimeter=lifelinePerimeter;whiteSpace=wrap;html=1;container=1;collapsible=0;recursiveResize=0;outlineConnect=0;fontSize=14;" parent="1" vertex="1">
          <mxGeometry x="250" y="40" width="100" height="690" as="geometry" />
        </mxCell>
        <mxCell id="bLqd7wcAviLybuqdrjyT-3" value="Database" style="shape=umlLifeline;perimeter=lifelinePerimeter;whiteSpace=wrap;html=1;container=1;collapsible=0;recursiveResize=0;outlineConnect=0;fontSize=14;" parent="1" vertex="1">
          <mxGeometry x="610" y="40" width="100" height="690" as="geometry" />
        </mxCell>
        <mxCell id="bLqd7wcAviLybuqdrjyT-4" value="Redis" style="shape=umlLifeline;perimeter=lifelinePerimeter;whiteSpace=wrap;html=1;container=1;collapsible=0;recursiveResize=0;outlineConnect=0;fontSize=14;" parent="1" vertex="1">
          <mxGeometry x="850" y="40" width="100" height="690" as="geometry" />
        </mxCell>
        <mxCell id="nO6Zc1zocE9kOZCaSYr1-2" value="return referrer record or not found" style="html=1;verticalAlign=bottom;endArrow=open;dashed=1;endSize=8;rounded=0;fontSize=14;" edge="1" parent="1">
          <mxGeometry relative="1" as="geometry">
            <mxPoint x="659.5" y="285" as="sourcePoint" />
            <mxPoint x="299.5" y="285" as="targetPoint" />
          </mxGeometry>
        </mxCell>
        <mxCell id="nO6Zc1zocE9kOZCaSYr1-4" value="get record from &quot;referrers&quot; table by referral_code" style="html=1;verticalAlign=bottom;endArrow=block;rounded=0;fontSize=14;" edge="1" parent="1">
          <mxGeometry width="80" relative="1" as="geometry">
            <mxPoint x="299.5" y="245" as="sourcePoint" />
            <mxPoint x="659.5" y="245" as="targetPoint" />
          </mxGeometry>
        </mxCell>
        <mxCell id="nO6Zc1zocE9kOZCaSYr1-8" value="get record from &quot;transactions&quot; table" style="html=1;verticalAlign=bottom;endArrow=block;rounded=0;fontSize=14;" edge="1" parent="1">
          <mxGeometry width="80" relative="1" as="geometry">
            <mxPoint x="299.5" y="125" as="sourcePoint" />
            <mxPoint x="659.5" y="125" as="targetPoint" />
          </mxGeometry>
        </mxCell>
        <mxCell id="nO6Zc1zocE9kOZCaSYr1-9" value="return &quot;transactions&quot; record" style="html=1;verticalAlign=bottom;endArrow=open;dashed=1;endSize=8;rounded=0;fontSize=14;" edge="1" parent="1">
          <mxGeometry relative="1" as="geometry">
            <mxPoint x="659.5" y="165" as="sourcePoint" />
            <mxPoint x="299.5" y="165" as="targetPoint" />
          </mxGeometry>
        </mxCell>
        <mxCell id="nO6Zc1zocE9kOZCaSYr1-10" value="" style="ellipse;html=1;shape=endState;fillColor=#000000;strokeColor=#ff0000;fontSize=14;" vertex="1" parent="1">
          <mxGeometry x="100" y="280" width="30" height="30" as="geometry" />
        </mxCell>
        <mxCell id="nO6Zc1zocE9kOZCaSYr1-11" value="if not found, skip" style="html=1;verticalAlign=bottom;endArrow=open;dashed=1;endSize=8;rounded=0;fontSize=14;entryX=1;entryY=0.5;entryDx=0;entryDy=0;" edge="1" parent="1" source="bLqd7wcAviLybuqdrjyT-2" target="nO6Zc1zocE9kOZCaSYr1-10">
          <mxGeometry relative="1" as="geometry">
            <mxPoint x="260" y="300" as="sourcePoint" />
            <mxPoint x="160" y="300" as="targetPoint" />
          </mxGeometry>
        </mxCell>
        <mxCell id="nO6Zc1zocE9kOZCaSYr1-12" value="return result" style="html=1;verticalAlign=bottom;endArrow=open;dashed=1;endSize=8;rounded=0;fontSize=14;" edge="1" parent="1">
          <mxGeometry relative="1" as="geometry">
            <mxPoint x="659.5" y="395" as="sourcePoint" />
            <mxPoint x="299.5" y="395" as="targetPoint" />
          </mxGeometry>
        </mxCell>
        <mxCell id="nO6Zc1zocE9kOZCaSYr1-13" value="create/update record in &quot;referees&quot; table" style="html=1;verticalAlign=bottom;endArrow=block;rounded=0;fontSize=14;" edge="1" parent="1">
          <mxGeometry width="80" relative="1" as="geometry">
            <mxPoint x="299.5" y="355" as="sourcePoint" />
            <mxPoint x="659.5" y="355" as="targetPoint" />
          </mxGeometry>
        </mxCell>
        <mxCell id="nO6Zc1zocE9kOZCaSYr1-14" value="return result" style="html=1;verticalAlign=bottom;endArrow=open;dashed=1;endSize=8;rounded=0;fontSize=14;" edge="1" parent="1">
          <mxGeometry relative="1" as="geometry">
            <mxPoint x="659.5" y="525" as="sourcePoint" />
            <mxPoint x="299.5" y="525" as="targetPoint" />
          </mxGeometry>
        </mxCell>
        <mxCell id="nO6Zc1zocE9kOZCaSYr1-15" value="update referrer record (num_referrals, total_earning)" style="html=1;verticalAlign=bottom;endArrow=block;rounded=0;fontSize=14;" edge="1" parent="1">
          <mxGeometry width="80" relative="1" as="geometry">
            <mxPoint x="299.5" y="485" as="sourcePoint" />
            <mxPoint x="659.5" y="485" as="targetPoint" />
          </mxGeometry>
        </mxCell>
        <mxCell id="nO6Zc1zocE9kOZCaSYr1-16" value="return result" style="html=1;verticalAlign=bottom;endArrow=open;dashed=1;endSize=8;rounded=0;fontSize=14;" edge="1" parent="1">
          <mxGeometry relative="1" as="geometry">
            <mxPoint x="899.5" y="645" as="sourcePoint" />
            <mxPoint x="299.5" y="645" as="targetPoint" />
          </mxGeometry>
        </mxCell>
        <mxCell id="nO6Zc1zocE9kOZCaSYr1-17" value="update leaderboard Sorted Set (member: wallet, score: num_referrals)" style="html=1;verticalAlign=bottom;endArrow=block;rounded=0;fontSize=14;" edge="1" parent="1">
          <mxGeometry width="80" relative="1" as="geometry">
            <mxPoint x="299.5" y="605" as="sourcePoint" />
            <mxPoint x="899.5" y="605" as="targetPoint" />
          </mxGeometry>
        </mxCell>
      </root>
    </mxGraphModel>
  </diagram>
</mxfile>
